<?xml version="1.0" encoding="utf-8"?>
<!-- Generator: Adobe Illustrator 24.1.3, SVG Export Plug-In . SVG Version: 6.00 Build 0)  -->
<svg version="1.1" id="Layer_1" xmlns="http://www.w3.org/2000/svg" xmlns:xlink="http://www.w3.org/1999/xlink" x="0px" y="0px"
	 viewBox="0 0 340.2 80.6" style="enable-background:new 0 0 340.2 80.6;" xml:space="preserve">
<style type="text/css">
	.st0{fill:#053C72;}
	.st1{fill:url(#SVGID_1_);}
	.st2{fill:url(#SVGID_2_);}
	.st3{fill:url(#SVGID_3_);}
	.st4{fill:url(#SVGID_4_);}
</style>
<g>
	<g>
		<g>
			<g>
				<polygon class="st0" points="131.2,12.9 131.2,34.3 101.7,34.3 101.7,12.9 95.5,12.9 95.5,67 101.7,67 101.7,40.1 131.2,40.1 
					131.2,67 137.4,67 137.4,12.9 				"/>
				<path class="st0" d="M218.8,21.6c0-3.3,2.3-4,4.3-4c1.2,0,2.2,0.3,2.8,0.8l0.4,0.3l3.1-4.8l-0.4-0.3c-1.6-1.2-3.8-1.9-5.9-1.9
					c-6.3,0-10.5,4-10.5,9.8V25h-1.4h-3.4H199v-3.5c0-3.3,2.3-4,4.3-4c1.2,0,2.2,0.3,2.8,0.8l0.4,0.3l3.1-4.8l-0.4-0.3
					c-1.6-1.2-3.8-1.9-5.9-1.9c-6.3,0-10.5,4-10.5,9.8v3.5H187v5.9h5.7v36.1h6.2v-36h8.8h3.4h1.4V67h6.2V30.9H229V25h-10.3
					L218.8,21.6L218.8,21.6z"/>
				<path class="st0" d="M276.3,23.8c-12.4,0-22.6,9.9-22.6,22.2s10.1,22.2,22.6,22.2s22.6-10,22.6-22.2S288.8,23.8,276.3,23.8z
					 M292.5,46c0,4.4-1.7,8.5-4.7,11.6s-7.1,4.8-11.5,4.8c-9,0-16.2-7.4-16.2-16.4s7.3-16.4,16.2-16.4S292.5,37,292.5,46z"/>
				<path class="st0" d="M335.8,28.6c-2.9-3.1-7.2-4.7-12.3-4.7c-5.8,0-11.1,3.4-13.5,7.1v-5.8h-6.2v42h6.2V41.3
					c0-6.5,7.1-11.6,13.1-11.6c6.5,0,10.8,4.4,10.8,11.1V67h6.2V40.7C340.2,35.7,338.7,31.5,335.8,28.6z"/>
				<path class="st0" d="M257.4,25.6c-0.1-0.1-3.1-1.7-7.2-1.7H250h-0.1h-0.2l0,0c-4.7,0.1-8.2,3-10.2,6.1v-5h-6.2v42h6.2V40.8
					c0-5.9,4.8-10.9,10.4-11c0.6,0,1.2,0.1,1.8,0.2h0.1c0.2,0.1,0.5,0.1,0.7,0.2h0.1c0.3,0.1,0.6,0.2,0.8,0.3
					c0.3,0.1,0.4,0.1,1.1-0.7c0.3-0.4,3-3.6,3.1-3.8C257.9,25.8,257.6,25.6,257.4,25.6z"/>
				<path class="st0" d="M164.4,23.8C152,23.8,142,33.8,142,46c0,12.3,10,22.2,22.4,22.2c3.5,0,6.9-0.8,10-2.5
					c3.3-1.7,6.2-4.2,8.3-7.3l0.1-0.2c0.1-0.2,0.3-0.4,0.4-0.6c0-0.1,0.1-0.1,0.1-0.2c0.1-0.1,0.1-0.2,0.2-0.3l0.2-0.4l0,0
					c0.4-0.7,0.7-1.4,1.1-2.2L185,54l-5.4-2.2l-0.2,0.5c-0.3,0.6-0.5,1.2-0.8,1.7c-3,5.3-8.3,8.5-14.3,8.5c-7.9,0-14.6-5.6-16-13.5
					h38.1l0.1-0.4c0.1-0.8,0.2-1.7,0.2-2.6C186.8,33.8,176.8,23.8,164.4,23.8z M180.5,43.1h-32.1c1.4-7.7,8.2-13.5,16-13.5
					C172.2,29.6,179,35.4,180.5,43.1z"/>
			</g>
		</g>
	</g>
	<g>
		<g>
			
				<linearGradient id="SVGID_1_" gradientUnits="userSpaceOnUse" x1="9.9774" y1="919.5969" x2="64.7415" y2="887.9789" gradientTransform="matrix(1 0 0 1 0 -852)">
				<stop  offset="0" style="stop-color:#053C72"/>
				<stop  offset="0.2227" style="stop-color:#16678B"/>
				<stop  offset="0.4528" style="stop-color:#248DA1"/>
				<stop  offset="0.6665" style="stop-color:#2EA8B0"/>
				<stop  offset="0.8556" style="stop-color:#35B8BA"/>
				<stop  offset="1" style="stop-color:#37BEBD"/>
			</linearGradient>
			<path class="st1" d="M39.8,21.8c15.8,0,28.9,12.2,28.6,28.9c-0.3,15.9-12.5,28.9-28.5,28.9C18,79.5,0,61.7,0,39.7
				c0,0,1.5,27.6,28.4,28.5c15.8,0.5,29.4-12.6,29.4-28.4l0,0c0-6.1-2.6-10.1-4.9-12.4C46.7,21.2,39.8,21.8,39.8,21.8z"/>
			
				<linearGradient id="SVGID_2_" gradientUnits="userSpaceOnUse" x1="2277.5947" y1="3001.2009" x2="2253.7468" y2="3054.7651" gradientTransform="matrix(4.489700e-11 -1 1 4.489700e-11 -2979.7573 2311.1382)">
				<stop  offset="0" style="stop-color:#053C72"/>
				<stop  offset="1" style="stop-color:#37BEBD"/>
			</linearGradient>
			<path class="st2" d="M21.5,39.8c0-15.8,12.1-28.9,28.8-28.5c17.4,0.5,28.8,12.5,28.8,28.5c0,21.8-17.8,39.7-39.7,39.7
				c0,0,27.5-1.5,28.4-28.4c0.5-15.8-12.6-29.3-28.3-29.3l0,0c-6.1,0-10,2.6-12.3,4.9C21,33,21.5,39.8,21.5,39.8z"/>
			
				<linearGradient id="SVGID_3_" gradientUnits="userSpaceOnUse" x1="114.1634" y1="5278.624" x2="168.7967" y2="5247.0811" gradientTransform="matrix(-1 0 0 -1 183.3809 5290.8955)">
				<stop  offset="0" style="stop-color:#053C72"/>
				<stop  offset="0.2237" style="stop-color:#16688B"/>
				<stop  offset="0.4535" style="stop-color:#248DA0"/>
				<stop  offset="0.667" style="stop-color:#2EA8B0"/>
				<stop  offset="0.8558" style="stop-color:#34B9B9"/>
				<stop  offset="1" style="stop-color:#37BEBD"/>
			</linearGradient>
			<path class="st3" d="M39.4,57.8c-15.8,0-28.8-12.1-28.5-28.7C11.3,13.4,23.5,0.4,39.4,0.4C61.2,0.4,79.1,18,79.1,40
				c0,0,0.3-27.3-28.4-28.3C35,11.1,21.5,24.2,21.5,39.9l0,0c0,6.1,2.6,10,4.9,12.3C32.6,58.4,39.4,57.8,39.4,57.8z"/>
			
				<linearGradient id="SVGID_4_" gradientUnits="userSpaceOnUse" x1="-2081.5544" y1="3105.3835" x2="-2105.4199" y2="3158.9861" gradientTransform="matrix(-4.489700e-11 1 -1 -4.489700e-11 3163.1382 2127.7573)">
				<stop  offset="0" style="stop-color:#053C72"/>
				<stop  offset="1" style="stop-color:#37BEBD"/>
			</linearGradient>
			<path class="st4" d="M57.8,39.9c0,15.7-12.2,28.3-28.9,28.3C12.6,68.3,0,55.9,0,40C0,18.3,17.8,0.4,39.8,0.4
				c0,0-27.6,1.5-28.5,28.2C10.8,44.3,24,57.8,39.8,57.8l0,0c6.1,0,10.1-2.6,12.4-4.9C58.4,46.8,57.8,39.9,57.8,39.9z"/>
		</g>
	</g>
</g>
</svg>
