<svg width="412" height="412" viewBox="0 0 412 412" fill="none" xmlns="http://www.w3.org/2000/svg">
<path d="M381.24 261.86C383.09 271.7 388.37 308.59 369.24 334.23C358.46 348.71 341.85 356.87 319.94 358.62C319.238 367.481 316.404 376.04 311.68 383.57C300.53 401.31 280.81 411.15 260.62 411.15C249.94 411.165 239.443 408.375 230.18 403.06C219.244 396.797 210.729 387.042 206 375.36C201.071 387.064 192.403 396.806 181.35 403.06C172.093 408.382 161.598 411.172 150.92 411.15C130.74 411.15 111.02 401.31 99.92 383.56C95.1797 376.019 92.3417 367.44 91.65 358.56C69.84 356.78 53.29 348.62 42.55 334.19C23.45 308.55 28.73 271.66 30.55 261.82C9.9 241.9 -0.220003 220.12 0.439997 197.05C1.49 160.36 29.44 132.34 37.34 125.05C27.61 84.92 43.54 67.25 58.8 59.51C59.299 59.2566 59.8431 59.1039 60.4011 59.0607C60.9591 59.0175 61.5202 59.0846 62.0523 59.2583C62.5844 59.4319 63.077 59.7087 63.5022 60.0727C63.9273 60.4368 64.2765 60.881 64.53 61.38C64.7834 61.879 64.9361 62.4231 64.9793 62.9811C65.0225 63.5391 64.9554 64.1002 64.7817 64.6323C64.6081 65.1644 64.3313 65.657 63.9673 66.0822C63.6032 66.5073 63.159 66.8566 62.66 67.11C44.05 76.55 38.51 96.2 46.17 125.54C46.3751 126.322 46.3533 127.147 46.1071 127.917C45.861 128.687 45.4007 129.372 44.78 129.89C44.43 130.18 9.96 159.37 8.9 197.39C8.31 218.52 18.12 238.67 38.05 257.29C38.597 257.801 39.0004 258.447 39.2197 259.163C39.4391 259.879 39.4667 260.64 39.3 261.37C39.2 261.78 29.94 303.18 49.3 329.17C58.4 341.37 72.64 348.35 91.53 350.04C92.5024 337.061 97.9736 324.827 107 315.45L113.61 308.57L88 300C86.9285 299.641 86.0437 298.87 85.5402 297.859C85.0366 296.847 84.9556 295.676 85.315 294.605C85.6744 293.534 86.4447 292.649 87.4564 292.145C88.4682 291.642 89.6385 291.561 90.71 291.92L120.12 301.82L138.37 282.82C139.162 282.049 140.222 281.616 141.328 281.613C142.433 281.609 143.496 282.035 144.293 282.801C145.09 283.567 145.558 284.612 145.599 285.717C145.639 286.821 145.249 287.898 144.51 288.72L113.14 321.39C105.847 328.939 101.286 338.709 100.183 349.147C99.0791 359.585 101.496 370.093 107.05 379C121.53 402.06 152.94 409.53 177.05 395.65C192.05 387.05 201.24 371.95 201.69 355.28C201.696 354.994 201.733 354.709 201.8 354.43V346.2C201.741 345.897 201.718 345.588 201.73 345.28C201.826 342.23 201.047 339.216 199.486 336.593C197.925 333.971 195.647 331.85 192.92 330.48C184.64 326.2 174.27 329.14 169.82 337.03C169.248 337.979 168.329 338.669 167.257 338.951C166.185 339.234 165.046 339.087 164.08 338.543C163.114 337.999 162.399 337.101 162.085 336.038C161.771 334.975 161.884 333.831 162.4 332.85C169.07 321.01 184.53 316.55 196.83 322.91C198.63 323.849 200.309 325.005 201.83 326.35V301.86C182.717 301.034 164.281 294.544 148.866 283.213C133.451 271.883 121.753 256.225 115.26 238.23C104.49 246.62 93.19 252.55 82.73 252.55C81.6002 252.55 80.5166 252.101 79.7177 251.302C78.9188 250.503 78.47 249.42 78.47 248.29C78.47 247.16 78.9188 246.077 79.7177 245.278C80.5166 244.479 81.6002 244.03 82.73 244.03C91.73 244.03 102.23 238.03 112.56 229.45C112.241 228.196 111.947 226.936 111.68 225.67C92.28 207.76 68.01 196.67 67.74 196.57C67.2298 196.34 66.7699 196.012 66.3865 195.605C66.0031 195.197 65.7037 194.718 65.5055 194.195C65.3072 193.671 65.214 193.114 65.231 192.555C65.2481 191.996 65.3752 191.445 65.605 190.935C65.8348 190.425 66.1629 189.965 66.5704 189.581C66.978 189.198 67.4571 188.899 67.9803 188.7C68.5036 188.502 69.0608 188.409 69.6201 188.426C70.1794 188.443 70.7298 188.57 71.24 188.8C84.9957 195.32 97.9601 203.392 109.88 212.86C109.7 210.48 109.58 208.08 109.58 205.66C109.608 180.83 119.216 156.968 136.401 139.045C153.586 121.123 177.023 110.521 201.83 109.45V63.45C201.38 64.08 200.94 64.71 200.45 65.31C194.761 72.0287 186.727 76.3279 177.981 77.3329C169.235 78.3379 160.434 75.9733 153.37 70.72C152.923 70.3838 152.546 69.9629 152.262 69.4811C151.977 68.9994 151.791 68.4664 151.712 67.9125C151.634 67.3586 151.665 66.7947 151.805 66.2529C151.944 65.7112 152.189 65.2022 152.525 64.755C152.861 64.3079 153.282 63.9313 153.764 63.6468C154.246 63.3624 154.779 63.1756 155.332 63.0971C155.886 63.0186 156.45 63.05 156.992 63.1895C157.534 63.329 158.043 63.5738 158.49 63.91C169.42 72.13 185.29 70.33 193.86 59.91C195.851 57.5252 197.334 54.7589 198.218 51.7806C199.102 48.8023 199.368 45.6748 199 42.59C196.978 36.7551 193.862 31.3589 189.82 26.69L189.67 26.56C189.274 26.2679 188.935 25.9052 188.67 25.49C183.704 20.1494 177.686 15.8957 170.994 12.9973C164.302 10.0989 157.082 8.61869 149.79 8.65C121.2 8.65 97.94 30.82 97.94 58.07C97.94 85.32 121.2 107.49 149.79 107.49C150.92 107.49 152.003 107.939 152.802 108.738C153.601 109.537 154.05 110.62 154.05 111.75C154.05 112.88 153.601 113.963 152.802 114.762C152.003 115.561 150.92 116.01 149.79 116.01C142.201 116.01 134.676 114.617 127.59 111.9C127.221 111.924 126.85 111.894 126.49 111.81C113.02 108.64 99.36 116.49 96.07 129.29C95.3183 132.233 95.1655 135.296 95.6208 138.299C96.076 141.302 97.1299 144.182 98.72 146.77C100.45 149.607 102.732 152.069 105.43 154.008C108.129 155.947 111.189 157.325 114.43 158.06C115.443 158.306 116.33 158.914 116.925 159.769C117.519 160.625 117.779 161.669 117.656 162.704C117.533 163.738 117.035 164.692 116.256 165.384C115.477 166.076 114.472 166.459 113.43 166.46C113.093 166.464 112.758 166.427 112.43 166.35C108.093 165.354 104 163.499 100.393 160.893C96.7857 158.287 93.738 154.984 91.43 151.18C89.2513 147.625 87.8091 143.669 87.1889 139.546C86.5688 135.424 86.7834 131.218 87.82 127.18C90.91 115.18 100.72 106.34 112.49 103.55C98.49 92.93 89.42 76.55 89.42 58.08C89.42 26.13 116.5 0.140005 149.79 0.140005C158.418 0.106806 166.957 1.89616 174.846 5.39094C182.735 8.88572 189.797 14.0072 195.57 20.42C200.667 24.4639 204.404 29.9704 206.28 36.2C215.23 15.07 236.71 0.130005 261.77 0.130005C275.27 0.130005 290.28 5.55 300.94 14.25C301.374 14.6033 301.734 15.0385 302 15.531C302.266 16.0235 302.432 16.5634 302.489 17.1201C302.546 17.6768 302.493 18.2393 302.333 18.7755C302.173 19.3116 301.908 19.811 301.555 20.245C301.202 20.679 300.766 21.0392 300.274 21.305C299.782 21.5708 299.242 21.737 298.685 21.7941C298.128 21.8512 297.566 21.7981 297.03 21.6378C296.493 21.4776 295.994 21.2133 295.56 20.86C285.943 13.1892 274.069 8.89831 261.77 8.65C233.41 8.65 210.33 30.82 210.33 58.07V109.46C223.657 110.054 236.715 113.415 248.673 119.33C260.63 125.245 271.226 133.585 279.785 143.817C288.344 154.05 294.68 165.952 298.39 178.767C302.099 191.581 303.1 205.027 301.33 218.25C315.83 220.92 328.56 216.61 339.22 205.43C340 204.612 341.073 204.137 342.202 204.11C343.332 204.082 344.427 204.505 345.245 205.285C346.063 206.065 346.538 207.138 346.565 208.267C346.592 209.397 346.17 210.492 345.39 211.31C333.74 223.54 321.09 227.47 309.65 227.47C306.369 227.459 303.096 227.151 299.87 226.55C295.256 247.176 283.996 265.715 267.821 279.319C251.646 292.924 231.451 300.839 210.34 301.85V355.43C210.553 363.65 212.886 371.675 217.114 378.727C221.342 385.779 227.32 391.619 234.47 395.68C258.6 409.55 290.03 402.08 304.47 379.03C310.045 370.116 312.475 359.593 311.373 349.137C310.271 338.681 305.701 328.896 298.39 321.34L295.78 318.64C294.114 320.168 292.357 321.594 290.52 322.91C280.753 330.025 269.003 333.903 256.92 334C255.687 334 254.457 333.96 253.23 333.88C252.103 333.802 251.053 333.279 250.311 332.427C249.569 331.574 249.197 330.462 249.275 329.335C249.353 328.208 249.876 327.158 250.728 326.416C251.581 325.674 252.693 325.302 253.82 325.38C265.172 326.038 276.398 322.722 285.57 316C298.24 306.89 305.48 292.85 304.44 279.36C304.397 278.802 304.465 278.241 304.639 277.709C304.813 277.177 305.09 276.684 305.455 276.26C306.191 275.402 307.238 274.871 308.365 274.785C309.492 274.699 310.607 275.064 311.465 275.8C312.323 276.536 312.854 277.583 312.94 278.71C313.84 290.51 309.65 302.56 301.65 312.44L304.55 315.44C313.58 324.825 319.045 337.071 320 350.06C339 348.4 353.29 341.42 362.43 329.17C381.81 303.17 372.55 261.78 372.43 261.37C372.262 260.641 372.288 259.88 372.506 259.165C372.723 258.449 373.125 257.802 373.67 257.29C393.61 238.67 403.41 218.52 402.83 197.39C401.83 159.84 368.15 130.91 367 129.93C363.67 127.29 354.17 120.03 349.88 117.82C349.364 117.575 348.903 117.229 348.524 116.802C348.144 116.375 347.855 115.877 347.672 115.336C347.489 114.795 347.417 114.222 347.46 113.653C347.503 113.084 347.659 112.529 347.921 112.021C348.182 111.513 348.543 111.064 348.982 110.698C349.421 110.333 349.929 110.06 350.475 109.894C351.022 109.729 351.596 109.675 352.164 109.737C352.731 109.798 353.281 109.972 353.78 110.25C357.24 112.03 362.78 116.05 366.96 119.16C370.712 112.377 372.68 104.752 372.68 97C372.68 70.66 350.2 49.23 322.56 49.23C301.45 49.23 282.5 62.1 275.41 80.84C283.001 82.8148 290.055 86.4604 296.057 91.5107C302.059 96.5609 306.857 102.888 310.1 110.03C310.328 110.54 310.454 111.09 310.47 111.649C310.485 112.208 310.39 112.764 310.191 113.286C309.991 113.808 309.69 114.286 309.306 114.691C308.921 115.097 308.461 115.423 307.95 115.65C307.404 115.901 306.811 116.03 306.21 116.03C305.386 116.029 304.581 115.79 303.89 115.341C303.2 114.892 302.654 114.253 302.32 113.5C293.67 94.12 271.76 83.68 250.21 88.68C249.116 88.9172 247.972 88.714 247.027 88.1146C246.081 87.5151 245.41 86.5675 245.157 85.4768C244.905 84.386 245.092 83.2397 245.678 82.2859C246.265 81.3321 247.203 80.6475 248.29 80.38C254.399 78.9567 260.703 78.5714 266.94 79.24C274.84 56.47 297.41 40.71 322.56 40.71C354.89 40.75 381.2 66 381.2 97C381.198 106.651 378.623 116.126 373.74 124.45C380.55 130.53 410.26 159.16 411.35 197.05C412 220.16 401.88 241.94 381.24 261.86ZM205.87 126.39C190.191 126.388 174.864 131.035 161.827 139.745C148.79 148.454 138.628 160.833 132.627 175.318C126.626 189.802 125.054 205.741 128.112 221.119C131.169 236.496 138.718 250.622 149.804 261.709C160.89 272.796 175.014 280.347 190.392 283.406C205.769 286.466 221.708 284.896 236.193 278.897C250.678 272.897 263.059 262.737 271.77 249.701C280.481 236.665 285.13 221.339 285.13 205.66C285.109 184.645 276.752 164.496 261.893 149.635C247.033 134.773 226.885 126.414 205.87 126.39ZM170.15 161.24C171.085 161.24 172 161.517 172.778 162.037C173.556 162.557 174.162 163.296 174.52 164.16C174.878 165.024 174.972 165.975 174.789 166.893C174.607 167.81 174.156 168.653 173.495 169.315C172.833 169.976 171.99 170.427 171.073 170.609C170.155 170.792 169.204 170.698 168.34 170.34C167.476 169.982 166.737 169.376 166.217 168.598C165.697 167.82 165.42 166.906 165.42 165.97C165.413 165.347 165.531 164.729 165.766 164.152C166.002 163.575 166.35 163.051 166.79 162.61C167.231 162.17 167.755 161.822 168.332 161.586C168.909 161.351 169.527 161.233 170.15 161.24ZM166.84 185.24C166.84 182.87 168.07 181.74 170.34 181.74C172.61 181.74 174.03 182.87 174.03 185.24V232C174.03 234.37 172.8 235.5 170.44 235.5C168.08 235.5 166.84 234.37 166.84 232V185.24ZM248.29 199.9C248.37 207.812 246.296 215.597 242.29 222.42C243.52 223.65 245.51 225.92 248.72 229.51C249.357 230.211 249.713 231.123 249.72 232.07C249.742 232.502 249.675 232.934 249.523 233.339C249.371 233.744 249.137 234.113 248.835 234.424C248.534 234.734 248.172 234.979 247.772 235.144C247.372 235.308 246.942 235.389 246.51 235.38C246.109 235.389 245.709 235.318 245.335 235.172C244.961 235.027 244.62 234.808 244.33 234.53L237.8 227.91C232.89 232.64 226.27 236.42 217.66 236.42C197.66 236.42 187.57 217.97 187.57 199.62C187.57 181.27 197.57 163.1 217.66 163.1C238.07 163.13 248.29 181.58 248.29 199.93V199.9ZM195 199.46C195 214.6 202.76 229.64 218 229.64C220.921 229.661 223.817 229.094 226.514 227.972C229.212 226.85 231.655 225.197 233.7 223.11L228.41 218.19C228.009 217.851 227.684 217.433 227.455 216.961C227.226 216.489 227.098 215.974 227.08 215.45C227.06 214.412 227.445 213.408 228.152 212.649C228.859 211.889 229.834 211.434 230.87 211.38C231.787 211.391 232.666 211.748 233.33 212.38L237.86 216.92C240.14 212 240.99 206.04 240.99 200.18C240.99 185.18 233.33 170.18 217.81 170.18C202.51 170.23 195 184.7 195 199.46Z" fill="url(#paint0_linear)"/>
<defs>
<linearGradient id="paint0_linear" x1="205.87" y1="0.130005" x2="205.87" y2="411.15" gradientUnits="userSpaceOnUse">
<stop stop-color="#38BFBD"/>
<stop offset="0.15" stop-color="#37B9BA"/>
<stop offset="0.34" stop-color="#33A9B0"/>
<stop offset="0.55" stop-color="#2D8EA0"/>
<stop offset="0.78" stop-color="#25688A"/>
<stop offset="1" stop-color="#1B3E71"/>
</linearGradient>
</defs>
</svg>
