<svg width="100" height="100" viewBox="0 0 100 100" fill="none" xmlns="http://www.w3.org/2000/svg">
<path d="M92.6663 63.6781C93.1164 66.0722 94.4012 75.0474 89.7463 81.2856C87.1233 84.8085 83.0816 86.7938 77.7503 87.2196C77.5794 89.3754 76.8898 91.4579 75.7404 93.2898C73.0273 97.6059 68.2289 100 63.3162 100C60.7175 100.004 58.1634 99.3248 55.9093 98.0317C53.2483 96.5078 51.1763 94.1345 50.0257 91.2924C48.8264 94.14 46.7171 96.51 44.0276 98.0317C41.7752 99.3265 39.2214 100.005 36.6232 100C31.7129 100 26.9145 97.6059 24.2135 93.2874C23.0601 91.4528 22.3695 89.3655 22.2012 87.205C16.8943 86.7719 12.8672 84.7866 10.2539 81.2758C5.60633 75.0377 6.89109 66.0625 7.33395 63.6684C2.30925 58.8219 -0.15322 53.5229 0.00737604 47.9101C0.262869 38.9835 7.06386 32.1663 8.98614 30.3927C6.61857 20.6292 10.4948 16.3301 14.2079 14.447C14.3294 14.3853 14.4617 14.3482 14.5975 14.3377C14.7333 14.3272 14.8698 14.3435 14.9993 14.3857C15.1288 14.428 15.2487 14.4953 15.3521 14.5839C15.4555 14.6725 15.5405 14.7805 15.6022 14.9019C15.6639 15.0234 15.701 15.1557 15.7115 15.2915C15.722 15.4273 15.7057 15.5638 15.6634 15.6932C15.6212 15.8227 15.5539 15.9425 15.4653 16.046C15.3767 16.1494 15.2686 16.2344 15.1472 16.296C10.6189 18.5928 9.27083 23.3736 11.1347 30.5119C11.1846 30.7022 11.1793 30.9028 11.1194 31.0902C11.0595 31.2776 10.9475 31.4441 10.7965 31.5702C10.7113 31.6408 2.32385 38.7426 2.06592 47.9928C1.92236 53.1337 4.3094 58.0361 9.1589 62.5663C9.29201 62.6907 9.39015 62.8478 9.44353 63.022C9.4969 63.1962 9.50363 63.3813 9.46306 63.5589C9.43873 63.6587 7.18552 73.7312 11.8963 80.0545C14.1106 83.0227 17.5756 84.7209 22.172 85.1321C22.4086 81.9742 23.7399 78.9979 25.9363 76.7164L27.5447 75.0426L21.3131 72.9575C21.0524 72.8701 20.8371 72.6827 20.7145 72.4365C20.592 72.1903 20.5723 71.9056 20.6597 71.6449C20.7472 71.3842 20.9346 71.169 21.1808 71.0464C21.427 70.9239 21.7118 70.9042 21.9725 70.9917L29.1287 73.4003L33.5695 68.7777C33.7622 68.5901 34.0202 68.4847 34.2891 68.4839C34.5581 68.483 34.8168 68.5867 35.0107 68.773C35.2046 68.9593 35.3185 69.2137 35.3284 69.4824C35.3382 69.7511 35.2432 70.0131 35.0635 70.2131L27.4303 78.1616C25.6557 79.9982 24.5459 82.3753 24.2774 84.9149C24.0089 87.4545 24.5971 90.0109 25.9485 92.178C29.4718 97.7884 37.1147 99.6058 42.9813 96.2289C46.6312 94.1365 48.8674 90.4627 48.9769 86.407C48.9784 86.3373 48.9874 86.2679 49.0037 86.2002V84.1978C48.9894 84.1241 48.9837 84.049 48.9866 83.974C49.01 83.2319 48.8205 82.4986 48.4407 81.8606C48.0609 81.2226 47.5065 80.7065 46.8429 80.3732C44.8282 79.3319 42.3049 80.0472 41.2221 81.9668C41.0829 82.1978 40.8592 82.3654 40.5984 82.4342C40.3377 82.5029 40.0604 82.4674 39.8254 82.335C39.5904 82.2027 39.4163 81.984 39.34 81.7253C39.2636 81.4667 39.2911 81.1885 39.4166 80.9498C41.0396 78.0692 44.8014 76.9841 47.7943 78.5314C48.2324 78.76 48.6409 79.041 49.011 79.3684V73.41C44.3602 73.2091 39.8743 71.63 36.1234 68.8734C32.3725 66.1168 29.5262 62.3072 27.9462 57.929C25.3255 59.9703 22.5759 61.4131 20.0307 61.4131C19.7558 61.4131 19.4922 61.3039 19.2978 61.1095C19.1034 60.9151 18.9942 60.6515 18.9942 60.3766C18.9942 60.1017 19.1034 59.8381 19.2978 59.6437C19.4922 59.4494 19.7558 59.3402 20.0307 59.3402C22.2207 59.3402 24.7756 57.8804 27.2892 55.7929C27.2115 55.4878 27.1401 55.1812 27.0751 54.8732C22.3545 50.5158 16.449 47.8176 16.3833 47.7933C16.2591 47.7374 16.1472 47.6576 16.0539 47.5584C15.9606 47.4592 15.8878 47.3427 15.8396 47.2154C15.7913 47.0881 15.7686 46.9525 15.7728 46.8164C15.7769 46.6804 15.8079 46.5464 15.8638 46.4223C15.9197 46.2982 15.9995 46.1863 16.0987 46.093C16.1979 45.9997 16.3144 45.9269 16.4418 45.8786C16.5691 45.8304 16.7047 45.8077 16.8407 45.8119C16.9768 45.816 17.1108 45.847 17.2349 45.9029C20.5821 47.4891 23.7366 49.4531 26.6371 51.7566C26.5933 51.1775 26.5641 50.5936 26.5641 50.0049C26.571 43.9637 28.9087 38.1582 33.0903 33.7977C37.2718 29.4372 42.9747 26.8579 49.011 26.5972V15.4056C48.9015 15.5588 48.7944 15.7121 48.6752 15.8581C47.291 17.4928 45.3359 18.5387 43.2078 18.7832C41.0797 19.0278 38.9383 18.4524 37.2194 17.1743C37.1106 17.0926 37.0189 16.9901 36.9497 16.8729C36.8805 16.7557 36.835 16.6261 36.816 16.4913C36.7969 16.3565 36.8045 16.2193 36.8384 16.0875C36.8724 15.9557 36.9319 15.8319 37.0137 15.7231C37.0956 15.6143 37.198 15.5227 37.3152 15.4535C37.4324 15.3843 37.5621 15.3388 37.6969 15.3197C37.8317 15.3006 37.9689 15.3083 38.1007 15.3422C38.2325 15.3761 38.3564 15.4357 38.4652 15.5175C41.1248 17.5174 44.9864 17.0795 47.0717 14.5443C47.5561 13.9641 47.917 13.291 48.1321 12.5664C48.3471 11.8418 48.4119 11.0809 48.3224 10.3304C47.8302 8.91078 47.0722 7.5979 46.0886 6.46197L46.0521 6.43034C45.9557 6.35928 45.8732 6.27102 45.8088 6.17001C44.6005 4.87065 43.136 3.83575 41.5078 3.13057C39.8795 2.4254 38.1227 2.06527 36.3482 2.07289C29.3915 2.07289 23.7318 7.46679 23.7318 14.0966C23.7318 20.7265 29.3915 26.1204 36.3482 26.1204C36.6232 26.1204 36.8868 26.2296 37.0812 26.4239C37.2756 26.6183 37.3848 26.8819 37.3848 27.1568C37.3848 27.4317 37.2756 27.6953 37.0812 27.8897C36.8868 28.0841 36.6232 28.1933 36.3482 28.1933C34.5016 28.1933 32.6706 27.8544 30.9464 27.1933C30.8566 27.1993 30.7664 27.1919 30.6787 27.1714C27.4011 26.4002 24.0773 28.31 23.2767 31.4243C23.0938 32.1402 23.0566 32.8855 23.1674 33.6161C23.2782 34.3467 23.5346 35.0475 23.9215 35.6771C24.3425 36.3674 24.8977 36.9662 25.5543 37.4381C26.211 37.9099 26.9556 38.2451 27.7442 38.4239C27.9906 38.4837 28.2065 38.6316 28.3512 38.8398C28.4959 39.048 28.5592 39.302 28.5292 39.5537C28.4992 39.8054 28.3781 40.0374 28.1886 40.2058C27.9991 40.3742 27.7544 40.4674 27.5009 40.4676C27.419 40.4686 27.3373 40.4596 27.2576 40.4408C26.2023 40.1986 25.2063 39.7471 24.3286 39.1132C23.4509 38.4792 22.7093 37.6756 22.1477 36.75C21.6176 35.8852 21.2666 34.9227 21.1157 33.9196C20.9648 32.9165 21.017 31.8934 21.2693 30.9109C22.0212 27.9913 24.4082 25.8406 27.2722 25.1618C23.8656 22.578 21.6586 18.5928 21.6586 14.0991C21.6586 6.32572 28.2479 0.00243303 36.3482 0.00243303C38.4478 -0.00564434 40.5254 0.4297 42.445 1.27997C44.3646 2.13024 46.083 3.37627 47.4878 4.9365C48.7279 5.92038 49.6373 7.26008 50.0938 8.77573C52.2716 3.63486 57.4982 0 63.596 0C66.8809 0 70.5332 1.31867 73.1271 3.43535C73.2327 3.5213 73.3204 3.6272 73.385 3.74702C73.4497 3.86683 73.4902 3.99821 73.504 4.13365C73.5179 4.26909 73.505 4.40594 73.466 4.53639C73.427 4.66684 73.3627 4.78833 73.2767 4.89392C73.1908 4.99952 73.0849 5.08715 72.9651 5.15182C72.8452 5.21648 72.7138 5.25692 72.5784 5.27081C72.4429 5.28471 72.3061 5.27179 72.1756 5.23279C72.0451 5.1938 71.9236 5.12949 71.818 5.04355C69.478 3.17728 66.5886 2.1333 63.596 2.07289C56.6952 2.07289 51.0793 7.46679 51.0793 14.0966V26.5997C54.3222 26.7442 57.4995 27.562 60.4091 29.0011C63.3187 30.4402 65.8968 32.4691 67.9796 34.9587C70.0623 37.4483 71.604 40.344 72.5065 43.4618C73.4091 46.5795 73.6527 49.8509 73.222 53.068C76.7502 53.7176 79.8478 52.669 82.4417 49.9489C82.6314 49.7498 82.8924 49.6343 83.1674 49.6277C83.4423 49.621 83.7086 49.7239 83.9077 49.9136C84.1068 50.1033 84.2224 50.3643 84.229 50.6392C84.2356 50.9141 84.1327 51.1804 83.943 51.3795C81.1082 54.355 78.0301 55.3112 75.2465 55.3112C74.4481 55.3084 73.6516 55.2335 72.8667 55.0873C71.7441 60.1055 69.0043 64.6161 65.0684 67.926C61.1326 71.2358 56.2186 73.1617 51.0817 73.4076V86.4435C51.1335 88.4433 51.7013 90.3958 52.73 92.1115C53.7587 93.8273 55.2135 95.2481 56.9532 96.2362C62.8246 99.6107 70.4724 97.7933 73.9861 92.1853C75.3426 90.0166 75.9339 87.4562 75.6658 84.9124C75.3977 82.3686 74.2855 79.9877 72.5066 78.1495L71.8715 77.4926C71.4662 77.8642 71.0387 78.2112 70.5916 78.5314C68.215 80.2624 65.356 81.2059 62.4159 81.2296C62.1158 81.2296 61.8165 81.2199 61.518 81.2004C61.2437 81.1814 60.9882 81.0542 60.8078 80.8468C60.6273 80.6394 60.5366 80.3689 60.5556 80.0946C60.5747 79.8204 60.7019 79.5649 60.9093 79.3845C61.1167 79.204 61.3873 79.1133 61.6615 79.1324C64.4238 79.2925 67.1555 78.4856 69.3872 76.8503C72.4701 74.6338 74.2318 71.2179 73.9788 67.9358C73.9684 67.8001 73.9848 67.6636 74.0272 67.5341C74.0696 67.4047 74.137 67.2849 74.2257 67.1815C74.4048 66.9728 74.6595 66.8437 74.9338 66.8228C75.2081 66.8018 75.4794 66.8906 75.6882 67.0697C75.897 67.2488 76.0261 67.5035 76.047 67.7777C76.266 70.6486 75.2465 73.5803 73.2999 75.9841L74.0055 76.714C76.2027 78.9974 77.5325 81.9769 77.7649 85.137C82.3881 84.7331 85.8653 83.0349 88.0893 80.0545C92.805 73.7288 90.5517 63.6587 90.5225 63.5589C90.4817 63.3815 90.488 63.1965 90.541 63.0224C90.5939 62.8482 90.6916 62.6909 90.8243 62.5663C95.6762 58.0361 98.0608 53.1337 97.9197 47.9928C97.6764 38.857 89.4811 31.8184 89.2013 31.58C88.391 30.9377 86.0794 29.1713 85.0355 28.6336C84.91 28.574 84.7978 28.4898 84.7055 28.386C84.6132 28.2821 84.5427 28.1608 84.4983 28.0292C84.4538 27.8976 84.4362 27.7584 84.4466 27.6198C84.457 27.4813 84.4952 27.3463 84.5588 27.2228C84.6225 27.0993 84.7103 26.9898 84.817 26.9009C84.9238 26.8121 85.0474 26.7455 85.1804 26.7053C85.3134 26.6651 85.4531 26.6521 85.5912 26.667C85.7294 26.6818 85.8631 26.7243 85.9845 26.7919C86.8264 27.2249 88.1744 28.203 89.1915 28.9597C90.1045 27.3093 90.5834 25.4542 90.5834 23.5682C90.5834 17.1597 85.1134 11.9459 78.3878 11.9459C73.2512 11.9459 68.6402 15.0771 66.915 19.6365C68.7621 20.117 70.4786 21.0039 71.939 22.2326C73.3994 23.4613 74.5668 25.0007 75.356 26.7384C75.4116 26.8625 75.4422 26.9963 75.4459 27.1322C75.4497 27.2682 75.4267 27.4035 75.3781 27.5305C75.3295 27.6575 75.2563 27.7737 75.1628 27.8724C75.0692 27.9711 74.9571 28.0504 74.8328 28.1057C74.7 28.1666 74.5556 28.1982 74.4094 28.1981C74.209 28.198 74.013 28.1398 73.845 28.0305C73.677 27.9213 73.5443 27.7657 73.4629 27.5826C71.3581 22.8675 66.0268 20.3275 60.7831 21.544C60.5169 21.6017 60.2386 21.5522 60.0086 21.4064C59.7785 21.2605 59.6151 21.03 59.5537 20.7646C59.4923 20.4992 59.5378 20.2204 59.6805 19.9883C59.8231 19.7562 60.0514 19.5897 60.3159 19.5246C61.8024 19.1783 63.3365 19.0846 64.854 19.2472C66.7763 13.7074 72.2682 9.873 78.3878 9.873C86.2546 9.88273 92.6565 16.026 92.6565 23.5682C92.6561 25.9161 92.0295 28.2215 90.8413 30.2467C92.4984 31.7259 99.7276 38.6915 99.9928 47.9101C100.151 53.5327 97.6885 58.8317 92.6663 63.6781ZM49.994 30.7187C46.179 30.7182 42.4495 31.8489 39.2772 33.9678C36.1049 36.0867 33.6323 39.0986 32.172 42.6227C30.7117 46.1467 30.3294 50.0246 31.0734 53.7659C31.8174 57.5072 33.6542 60.9439 36.3517 63.6414C39.0491 66.3388 42.486 68.1759 46.2277 68.9203C49.9694 69.6646 53.8478 69.2828 57.3724 67.8232C60.8971 66.3635 63.9097 63.8916 66.0292 60.7199C68.1488 57.5483 69.2801 53.8194 69.2801 50.0049C69.275 44.8918 67.2415 39.9897 63.6258 36.374C60.0101 32.7584 55.1077 30.7245 49.994 30.7187ZM41.3024 39.1976C41.53 39.1976 41.7525 39.2651 41.9418 39.3915C42.1311 39.518 42.2786 39.6977 42.3657 39.908C42.4528 40.1183 42.4756 40.3497 42.4312 40.5729C42.3868 40.7961 42.2772 41.0012 42.1162 41.1621C41.9553 41.3231 41.7502 41.4327 41.5269 41.4771C41.3037 41.5215 41.0722 41.4987 40.8619 41.4116C40.6516 41.3245 40.4719 41.177 40.3454 40.9877C40.2189 40.7985 40.1514 40.576 40.1514 40.3484C40.1498 40.1968 40.1785 40.0464 40.2357 39.9061C40.293 39.7657 40.3777 39.6382 40.4849 39.531C40.5921 39.4238 40.7196 39.3391 40.86 39.2819C41.0004 39.2246 41.1508 39.196 41.3024 39.1976ZM40.497 45.0367C40.497 44.4601 40.7963 44.1852 41.3486 44.1852C41.901 44.1852 42.2465 44.4601 42.2465 45.0367V56.4133C42.2465 56.9899 41.9472 57.2648 41.373 57.2648C40.7987 57.2648 40.497 56.9899 40.497 56.4133V45.0367ZM60.3159 48.6035C60.3354 50.5284 59.8307 52.4224 58.856 54.0825C59.1553 54.3818 59.6395 54.9341 60.4206 55.8075C60.5756 55.9781 60.6622 56.1999 60.6639 56.4303C60.6693 56.5354 60.6529 56.6405 60.6159 56.739C60.5789 56.8376 60.5219 56.9274 60.4487 57.003C60.3754 57.0785 60.2873 57.1382 60.19 57.1782C60.0926 57.2182 59.9881 57.2378 59.8828 57.2356C59.7851 57.2378 59.688 57.2206 59.597 57.1851C59.506 57.1496 59.4228 57.0965 59.3524 57.0288L57.7635 55.4182C56.5687 56.569 54.9579 57.4887 52.8628 57.4887C47.9963 57.4887 45.5411 52.9998 45.5411 48.5353C45.5411 44.0708 47.9744 39.6501 52.8628 39.6501C57.8292 39.6574 60.3159 44.1463 60.3159 48.6108V48.6035ZM47.3491 48.4964C47.3491 52.1799 49.2373 55.8391 52.9456 55.8391C53.6564 55.8443 54.361 55.7063 55.0173 55.4333C55.6737 55.1603 56.2683 54.758 56.7658 54.2504L55.4786 53.0534C55.3811 52.971 55.302 52.8691 55.2463 52.7543C55.1905 52.6395 55.1594 52.5143 55.155 52.3867C55.1502 52.1343 55.2438 51.8899 55.4158 51.7052C55.5879 51.5204 55.825 51.4097 56.0772 51.3965C56.3003 51.3991 56.5141 51.486 56.6758 51.6398L57.778 52.7444C58.3328 51.5474 58.5397 50.0973 58.5397 48.6716C58.5397 45.0221 56.6758 41.3727 52.8993 41.3727C49.1764 41.3848 47.3491 44.9053 47.3491 48.4964Z" fill="white"/>
</svg>
